<svg version="1" xmlns="http://www.w3.org/2000/svg" width="1066.667" height="1066.667" viewBox="0 0 800.000000 800.000000"><path d="M129 .7c-16.3 2.7-32.8 15-40 29.8-6 12.3-6 11.8-6 83.6v65.7l-5.2 1.8c-22.4 7.3-38.6 23.3-46.4 45.9-2.6 7.2-2.8 9.3-2.8 21.5s.2 14.3 2.8 21.5c1.5 4.4 4.3 10.5 6.2 13.6l3.4 5.7-4.4 8.3c-6.8 13-8.1 18.2-8 33.4 0 11.3.4 14 2.7 21 1.4 4.4 4.2 10.6 6.1 13.8l3.6 5.9-3.9 7.1c-11.7 21.4-12 44.5-1.1 66.4l4.8 9.4-3.3 5.4c-8 13.4-11.4 33.8-8.2 49.1 3.5 16.3 12.3 31 24.8 41.1 6.8 5.6 17.6 11.4 24.7 13.2l4.2 1.2v79.4c0 85.8 0 86.6 5.5 101 5.8 15.4 17 29.8 30.9 39.4 8.4 5.8 15.2 9 25.9 12.4l7.2 2.2 310.3.3 310.2.2V424.8c0-414 .5-380.9-6.3-394.7-4.3-8.8-15-19.5-23.8-23.8C729.2-.5 754 0 427.5.2 264.7.2 130.4.5 129 .7zm600.6 34.8c3 1.9 6 4.9 7.9 7.9l3 4.9.3 291.4.2 291.3-294.2.2-294.3.3-7.3 2.3c-9.5 2.9-18.4 7-24.9 11.5l-5.3 3.6V460.8l3.1 1.9c11.8 7.5 17.1 16 19.4 31.1 1.5 10 3 12.9 8.6 16.1 7.2 4.1 16.6 1.5 21-5.6 4.6-7.4 2.3-24.5-5.4-40.3-3.3-6.9-5.8-10.2-13.2-17.6-9.3-9.3-17-14.2-28.2-17.9l-5.3-1.7v-23.9c0-13.1.3-23.9.6-23.9s2 1 3.7 2.2c10.5 7.1 16.1 16.1 17.8 28.5 1.4 10 2.4 12.7 6.4 16.2 6.4 5.6 15.3 5 21.4-1.3 4.3-4.4 5.3-9.1 4.1-19.2-3-24.5-18.3-45.7-40.5-55.9-3.8-1.8-8.5-3.6-10.2-4l-3.3-.7v-23.9c0-13.1.4-23.9.8-23.9.5 0 3.4 1.8 6.4 4 9.1 6.5 13.8 15.5 15.3 29.2 1.2 11.2 6.5 16.8 15.8 16.8 12.2 0 17.6-8.3 15.7-23.9-2.6-20.6-14.1-39.4-30.8-50.5-6.6-4.3-18.5-9.6-21.6-9.6-1.4 0-1.6-2.8-1.6-24.6v-24.5l4.1 2.3c9.8 5.5 16.2 16.1 18.4 30.7 1.5 10.3 3.2 13.4 8.8 16.3 7.6 3.8 17.4.9 21.4-6.5 1.3-2.3 1.7-5.3 1.6-10.8-.2-9.9-2.4-18.4-7.6-28.9-3.3-6.9-5.8-10.2-13.2-17.5-9.3-9.4-17.2-14.4-28.2-18l-5.3-1.7v-64.6c0-63 .1-64.8 2.1-69.2 2.7-6 5.4-8.8 11.4-11.6l5-2.4 295.6.3 295.6.2 4.9 3zM82.8 238.1l-.3 24.1-6.5 2.2c-3.6 1.3-7.5 2.8-8.6 3.4-2 1.1-2.3.7-4.4-4.1-5.2-11.9-3.2-27.4 5-38.3 3.4-4.6 11.9-11.4 14.2-11.4.5 0 .7 10.9.6 24.1zm.2 82.8v23.9l-3.2.7c-1.8.4-5.8 1.8-8.8 3.2-5.2 2.3-5.5 2.3-6.8.6-2.7-3.7-4.4-12.5-4-20.2.7-12 6.2-22.1 16.2-29.3 6.8-4.9 6.6-5.5 6.6 21.1zm0 81.9v23.9l-7.2 2.5c-4 1.4-8.1 2.9-9.1 3.3-1.4.6-2.2-.2-4-4.1-1.8-4-2.2-6.7-2.2-14.9 0-8.7.3-10.7 2.6-15.5 1.4-3.1 4-7.2 5.8-9.2 3.1-3.6 11.6-9.8 13.3-9.8.4 0 .8 10.7.8 23.8zm0 93.2c0 19.8-.4 35-.9 35s-3.1-1.5-5.7-3.3c-13.6-9.4-19.6-27.3-14.5-43.6 1.9-6.1 5.5-11.9 9.5-15.4 4.1-3.5 9.9-7.7 10.8-7.7.4 0 .8 15.7.8 35zm658 185v18l-256.7.2c-240.4.3-257 .4-259.9 2-4.4 2.4-8 7-8.8 11.2-1.5 8 3.8 16.3 11.9 18.5 2.8.8 78.7 1.1 258.8 1.1H741v36H452.3c-318.9 0-296 .4-309.2-6.5-31.4-16.5-37.7-58-12.6-83 7.1-7.1 13.7-10.9 23.7-13.5 7.1-1.8 14.9-1.9 297.1-1.9L741 663v18z"/><path d="M325.5 154c-46.3 6-84 36.3-99.3 80.1-9.3 26.4-8 59.1 3.2 85 8.8 20.4 5.5 16.8 109.6 121.1 86.1 86.3 95.9 95.8 99.3 96.4 9.3 1.6 4.5 5.9 103.8-93.4 62.5-62.5 93.6-94.4 97.9-100.2 32.9-44.5 30.8-105.7-5.1-147.8-36.1-42.5-97.6-54.1-146.5-27.6-16.3 8.8-31.9 22.7-41.9 37.3-4.3 6.2-5.1 7-6 5.5-3.3-5.7-13.4-18-19.8-24.1-21.3-20.2-48.1-31.5-77.9-32.7-5.7-.3-13.4-.1-17.3.4z"/></svg>