<svg width="47" height="50.461" xmlns="http://www.w3.org/2000/svg">
 <g>
  <rect fill="none" id="canvas_background" height="402" width="582" y="-1" x="-1"/>
 </g>
 <g>
  <path id="svg_4" fill="#008ee0" fill-opacity="0" d="m46,49.461l-37.2109,0c-2.3887,0 -4.3272,-1.9375 -4.3272,-4.3262c0,-2.3906 1.9385,-4.3271 4.3272,-4.3271l37.2109,0l0,8.6533z"/>
  <path id="svg_7" fill="#ffffff" d="m47,50.461l-38.2109,0c-2.9375,0 -5.3272,-2.3897 -5.3272,-5.3262c0,-2.9375 2.3897,-5.3271 5.3272,-5.3271l38.2109,0l0,10.6533l0,0zm-38.2109,-8.6533c-1.835,0 -3.3272,1.4921 -3.3272,3.3271c0,1.834 1.4922,3.3262 3.3272,3.3262l36.2109,0l0,-6.6533l-36.2109,0l0,0z"/>
  <path id="svg_9" fill="#ffffff" d="m45.1348,46.1348l-32.3077,0c-0.5527,0 -1,-0.4473 -1,-1s0.4473,-1 1,-1l32.3077,0c0.5527,0 1,0.4473 1,1s-0.4473,1 -1,1l0,0z"/>
  <path id="svg_10" fill="#aaffff" fill-opacity="0" d="m43.4893,1l-36.5147,0c-1.3867,0 -2.5127,1.125 -2.5127,2.5118l0,41.623c0,-2.3906 1.9385,-4.3271 4.3272,-4.3271l37.2109,0l0,-37.2959c0,-1.3868 -1.124,-2.5118 -2.5107,-2.5118z"/>
  <path id="svg_12" fill="#ffffff" d="m5.4619,45.1348l-2,0l0,-41.623c0,-1.9366 1.5762,-3.5118 3.5127,-3.5118l36.5147,0c1.9355,0 3.5107,1.5752 3.5107,3.5118l0,38.2959l-38.2109,0c-1.835,0 -3.3272,1.4921 -3.3272,3.3271l0,0zm1.5127,-43.1348c-0.834,0 -1.5127,0.6778 -1.5127,1.5118l0,37.4658c0.9121,-0.7315 2.0694,-1.1699 3.3272,-1.1699l36.2109,0l0,-36.2959c0,-0.834 -0.6777,-1.5118 -1.5107,-1.5118l-36.5147,0l0,0z"/>
  <path id="svg_15" fill="#ffffff" d="m4.4619,35.7491c-2.4599,0 -4.4619,-2.002 -4.4619,-4.4619c0,-2.46 2.002,-4.461 4.4619,-4.461c2.46,0 4.4619,2.001 4.4619,4.461c0,0.5527 -0.4472,1 -1,1c-0.5527,0 -1,-0.4473 -1,-1c0,-1.3575 -1.1045,-2.461 -2.4619,-2.461s-2.4619,1.1035 -2.4619,2.461c0,1.3574 1.1045,2.4619 2.4619,2.4619c0.5527,0 1,0.4472 1,1c0,0.5527 -0.4473,1 -1,1l0,0z"/>
  <path id="svg_17" fill="#ffffff" d="m2.1973,30.0215l-0.6592,-0.5752c-0.9776,-0.8525 -1.5381,-2.0742 -1.5381,-3.3506c0,-2.4599 2.002,-4.4609 4.4619,-4.4609c2.46,0 4.4619,2.001 4.4619,4.4609c0,0.5528 -0.4472,1 -1,1c-0.5527,0 -1,-0.4472 -1,-1c0,-1.3574 -1.1045,-2.4609 -2.4619,-2.4609s-2.4619,1.1035 -2.4619,2.4609c0,0.4561 0.125,0.8897 0.3613,1.2686c1.5821,-0.8613 3.6446,-0.6367 5.0274,0.5762c0.415,0.3652 0.456,0.997 0.0918,1.4121c-0.3662,0.414 -0.9971,0.4541 -1.4121,0.0918c-0.3204,-0.2822 -0.8604,-0.6182 -1.6065,-0.6182c-0.7461,0 -1.2861,0.336 -1.6064,0.6182l-0.6582,0.5771l0,0z"/>
  <path id="svg_19" fill="#ffffff" d="m2.1963,24.8272l-0.6582,-0.5742c-0.9776,-0.8526 -1.5381,-2.0733 -1.5381,-3.3487c0,-2.4599 2.002,-4.4619 4.4619,-4.4619c2.46,0 4.4619,2.002 4.4619,4.4619c0,0.5528 -0.4472,1 -1,1c-0.5527,0 -1,-0.4472 -1,-1c0,-1.3574 -1.1045,-2.4619 -2.4619,-2.4619s-2.4619,1.1045 -2.4619,2.4619c0,0.4551 0.125,0.8887 0.3613,1.2676c1.5821,-0.8613 3.6455,-0.6367 5.0264,0.5752c0.415,0.3643 0.457,0.9951 0.0928,1.4111c-0.3643,0.4161 -0.9981,0.4551 -1.4112,0.0928c-0.3203,-0.2812 -0.8603,-0.6162 -1.6074,-0.6162c-0.7471,0 -1.2871,0.335 -1.6074,0.6162l-0.6582,0.5762l0,0z"/>
  <path id="svg_21" fill="#ffffff" d="m2.1973,19.6368l-0.6602,-0.5762c-0.9766,-0.8535 -1.5371,-2.0742 -1.5371,-3.3496c0,-2.46 2.002,-4.461 4.4619,-4.461c2.46,0 4.4619,2.001 4.4619,4.461c0,0.5527 -0.4472,1 -1,1c-0.5527,0 -1,-0.4473 -1,-1c0,-1.3574 -1.1045,-2.461 -2.4619,-2.461s-2.4619,1.1036 -2.4619,2.461c0,0.456 0.126,0.8896 0.3613,1.2685c1.5821,-0.8603 3.6465,-0.6347 5.0274,0.5762c0.415,0.3652 0.456,0.9971 0.0918,1.4121c-0.3662,0.4151 -0.9971,0.4541 -1.4121,0.0918c-0.3204,-0.2822 -0.8594,-0.6172 -1.6065,-0.6172c-0.7471,0 -1.2861,0.335 -1.6064,0.6172l-0.6582,0.5772l0,0z"/>
  <path id="svg_23" fill="#ff7ec9" d="m26.0957,17.1836c0,-3.5839 2.9043,-6.4882 6.4912,-6.4882c3.583,0 6.4902,2.9043 6.4902,6.4882c0,1.8809 -0.8134,3.5567 -2.0869,4.7442l0.0186,0.0019l-10.9131,10.9121l-10.9141,-10.9121c0.0039,-0.0019 0.0079,-0.0019 0.0118,-0.0068c-1.2735,-1.1865 -2.0782,-2.8584 -2.0782,-4.7393c0,-3.5839 2.9043,-6.4882 6.4922,-6.4882c3.584,0 6.4883,2.9043 6.4883,6.4882z"/>
  <path id="svg_25" fill="#ffffff" d="m26.0957,33.8418c-0.2559,0 -0.5117,-0.0976 -0.707,-0.2929l-10.9141,-10.9121c-0.0332,-0.0323 -0.0625,-0.0674 -0.0908,-0.1036c-1.4639,-1.4267 -2.2686,-3.3193 -2.2686,-5.3496c0,-4.1289 3.3614,-7.4882 7.4922,-7.4882c2.7696,0 5.1934,1.5117 6.4883,3.7529c1.2959,-2.2412 3.7207,-3.7529 6.4912,-3.7529c4.1299,0 7.4902,3.3593 7.4902,7.4882c0,2.0225 -0.8037,3.9121 -2.2675,5.3438c-0.0283,0.0381 -0.0596,0.0752 -0.0938,0.1094l-10.9131,10.9121c-0.1953,0.1953 -0.4511,0.2929 -0.707,0.2929l0,0zm-10.0898,-12.5019l10.0898,10.0879l10.0801,-10.0791c0.0381,-0.0547 0.083,-0.1055 0.1328,-0.1524c1.1406,-1.0634 1.7685,-2.4883 1.7685,-4.0127c0,-3.0263 -2.4628,-5.4882 -5.4902,-5.4882c-3.0283,0 -5.4912,2.4619 -5.4912,5.4882c0,0.5528 -0.4473,1 -1,1c-0.5527,0 -1,-0.4472 -1,-1c0,-3.0263 -2.4619,-5.4882 -5.4883,-5.4882c-3.0283,0 -5.4922,2.4619 -5.4922,5.4882c0,1.5274 0.625,2.9502 1.7598,4.0078c0.0498,0.0459 0.0928,0.0958 0.1309,0.1485l0,0z"/>
 </g>
</svg>